<mxfile host="app.diagrams.net" modified="2024-01-10T09:45:08.520Z" agent="Mozilla/5.0 (Macintosh; Intel Mac OS X 10_15_7) AppleWebKit/537.36 (KHTML, like Gecko) Chrome/120.0.0.0 Safari/537.36" version="22.1.18" etag="Ifk_vYwBYSjJ241KnKeb" type="github">
  <diagram name="第 1 页" id="ncflZ5oSmSY4RX7Yyy6Q">
    <mxGraphModel>
      <root>
        <mxCell id="0" />
        <mxCell id="1" parent="0" />
      </root>
    </mxGraphModel>
  </diagram>
</mxfile>
